<svg width="150" height="47" viewBox="0 0 150 47" fill="none" xmlns="http://www.w3.org/2000/svg">
<path d="M14.588 28.22C13.7227 28.22 12.938 28.0367 12.234 27.67C11.5447 27.3033 10.9947 26.768 10.584 26.064C10.188 25.3453 9.99 24.4727 9.99 23.446C9.99 22.4193 10.1953 21.5393 10.606 20.806C11.0313 20.0727 11.596 19.508 12.3 19.112C13.0187 18.716 13.8033 18.518 14.654 18.518C15.4753 18.518 16.172 18.694 16.744 19.046C17.316 19.398 17.7633 19.8233 18.086 20.322L18.24 18.892H20.132V28H18.086V26.504C17.91 26.7387 17.6533 26.988 17.316 27.252C16.9933 27.516 16.5973 27.7433 16.128 27.934C15.6733 28.1247 15.16 28.22 14.588 28.22ZM15.138 26.526C15.886 26.526 16.524 26.3207 17.052 25.91C17.58 25.4847 17.9247 24.9127 18.086 24.194V22.39C17.91 21.7593 17.5433 21.2387 16.986 20.828C16.4287 20.4173 15.7907 20.212 15.072 20.212C14.5147 20.212 14.0087 20.344 13.554 20.608C13.0993 20.872 12.7327 21.2387 12.454 21.708C12.19 22.1773 12.058 22.72 12.058 23.336C12.058 23.9373 12.1973 24.48 12.476 24.964C12.7547 25.4333 13.1287 25.8147 13.598 26.108C14.0673 26.3867 14.5807 26.526 15.138 26.526ZM25.5421 18.892L25.6741 20.652C25.9821 20.0067 26.4588 19.4933 27.1041 19.112C27.7494 18.7307 28.4974 18.54 29.3481 18.54C30.1988 18.54 30.8954 18.7967 31.4381 19.31C31.9954 19.8087 32.2888 20.4613 32.3181 21.268V28H30.2501V21.972C30.2208 21.488 30.0668 21.092 29.7881 20.784C29.5241 20.476 29.1061 20.3147 28.5341 20.3C27.7421 20.3 27.0748 20.6227 26.5321 21.268C26.0041 21.8987 25.7401 22.72 25.7401 23.732V28H23.6941V18.892H25.5421ZM35.8543 28V10.95H37.9003V22.456L42.6083 18.672L43.8623 19.772L40.4963 22.5L44.3023 28H41.9043L39.0883 23.644L37.9003 24.59V28H35.8543ZM49.7368 28.352C48.9008 28.352 48.2114 28.1027 47.6688 27.604C47.1261 27.0907 46.8474 26.4307 46.8328 25.624V18.892H48.8788V24.898C48.9081 25.3967 49.0548 25.8 49.3188 26.108C49.5828 26.416 49.9934 26.5773 50.5508 26.592C51.0494 26.592 51.5041 26.4453 51.9148 26.152C52.3254 25.844 52.6481 25.4333 52.8828 24.92C53.1321 24.392 53.2568 23.798 53.2568 23.138V18.892H55.3028V28H53.4548L53.3008 26.284C53.0074 26.8853 52.5381 27.384 51.8928 27.78C51.2621 28.1613 50.5434 28.352 49.7368 28.352ZM60.69 18.892L60.844 21.026C61.0934 20.5127 61.438 20.0727 61.878 19.706C62.318 19.3247 62.7727 19.0387 63.242 18.848C63.726 18.6427 64.144 18.5327 64.496 18.518L64.408 20.564C63.7187 20.5347 63.11 20.674 62.582 20.982C62.054 21.2753 61.6434 21.6787 61.35 22.192C61.0567 22.7053 60.91 23.2553 60.91 23.842V28H58.864V18.892H60.69ZM66.5195 13.524H70.3255V28H68.1695V15.57H66.5195V13.524ZM73.8032 28C74.7126 27.076 75.5926 26.1813 76.4432 25.316C77.3086 24.4507 78.0786 23.6073 78.7532 22.786C79.4279 21.9647 79.9632 21.1653 80.3592 20.388C80.7699 19.6107 80.9752 18.8627 80.9752 18.144C80.9752 17.4987 80.8432 16.978 80.5792 16.582C80.3152 16.1713 79.9706 15.8707 79.5452 15.68C79.1346 15.4893 78.7019 15.394 78.2472 15.394C77.6019 15.394 77.0812 15.526 76.6852 15.79C76.3039 16.054 76.0252 16.3767 75.8492 16.758C75.6732 17.1393 75.5852 17.506 75.5852 17.858C75.5852 18.3567 75.6586 18.7967 75.8052 19.178C75.9519 19.5593 76.1646 19.8893 76.4432 20.168L75.1452 21.356C74.7932 21.1507 74.4926 20.85 74.2432 20.454C74.0086 20.0433 73.8252 19.6107 73.6932 19.156C73.5759 18.7013 73.5172 18.2833 73.5172 17.902C73.5172 17.11 73.7079 16.3693 74.0892 15.68C74.4852 14.9907 75.0572 14.4333 75.8052 14.008C76.5679 13.568 77.4992 13.348 78.5992 13.348C79.5086 13.348 80.3079 13.5607 80.9972 13.986C81.6866 14.4113 82.2219 14.976 82.6032 15.68C82.9846 16.3693 83.1752 17.132 83.1752 17.968C83.1752 18.9067 82.9406 19.8233 82.4712 20.718C82.0019 21.6127 81.4006 22.4927 80.6672 23.358C79.9486 24.2233 79.2079 25.0813 78.4452 25.932H83.6592V28H73.8032ZM85.7915 22.368H89.8835V24.172H85.7915V22.368ZM92.4512 13.524H96.2572V28H94.1012V15.57H92.4512V13.524ZM104.575 28.176C103.607 28.176 102.727 27.9487 101.935 27.494C101.143 27.0247 100.52 26.3647 100.065 25.514C99.6102 24.6487 99.3829 23.622 99.3829 22.434C99.3829 21.4953 99.5662 20.6007 99.9329 19.75C100.3 18.8847 100.798 18.078 101.429 17.33C102.074 16.5673 102.793 15.8633 103.585 15.218C104.377 14.558 105.198 13.9493 106.049 13.392L107.479 14.954C106.1 15.6433 104.978 16.428 104.113 17.308C103.262 18.1733 102.646 19.0313 102.265 19.882C102.632 19.5007 103.064 19.2147 103.563 19.024C104.062 18.8187 104.634 18.716 105.279 18.716C106.027 18.716 106.731 18.9213 107.391 19.332C108.066 19.728 108.608 20.2707 109.019 20.96C109.43 21.6493 109.635 22.4413 109.635 23.336C109.635 24.3187 109.393 25.1767 108.909 25.91C108.44 26.6287 107.816 27.186 107.039 27.582C106.276 27.978 105.455 28.176 104.575 28.176ZM104.487 26.262C105.308 26.262 105.998 25.998 106.555 25.47C107.127 24.9273 107.413 24.216 107.413 23.336C107.413 22.4853 107.127 21.8033 106.555 21.29C105.998 20.7767 105.308 20.52 104.487 20.52C103.944 20.52 103.453 20.6373 103.013 20.872C102.573 21.1067 102.221 21.4147 101.957 21.796C101.693 22.1773 101.561 22.5953 101.561 23.05V23.446C101.561 23.9447 101.686 24.414 101.935 24.854C102.199 25.2793 102.551 25.624 102.991 25.888C103.446 26.1373 103.944 26.262 104.487 26.262ZM111.701 13.524H115.507V28H113.351V15.57H111.701V13.524ZM124.661 28.066C123.458 28.066 122.402 27.7727 121.493 27.186C120.584 26.5847 119.872 25.734 119.359 24.634C118.846 23.534 118.589 22.2213 118.589 20.696C118.589 18.2613 119.139 16.428 120.239 15.196C121.339 13.964 122.813 13.3553 124.661 13.37C125.849 13.3553 126.898 13.6487 127.807 14.25C128.731 14.8367 129.45 15.68 129.963 16.78C130.476 17.88 130.733 19.1853 130.733 20.696C130.733 22.2653 130.476 23.6 129.963 24.7C129.45 25.8 128.731 26.636 127.807 27.208C126.898 27.78 125.849 28.066 124.661 28.066ZM124.639 26.02C125.49 26.02 126.201 25.8 126.773 25.36C127.345 24.9053 127.778 24.2747 128.071 23.468C128.364 22.6613 128.518 21.7227 128.533 20.652C128.518 19.0973 128.181 17.836 127.521 16.868C126.876 15.9 125.915 15.4233 124.639 15.438C123.803 15.4233 123.099 15.6433 122.527 16.098C121.955 16.538 121.522 17.154 121.229 17.946C120.936 18.738 120.789 19.6547 120.789 20.696C120.789 21.752 120.936 22.6833 121.229 23.49C121.522 24.282 121.955 24.9053 122.527 25.36C123.099 25.8 123.803 26.02 124.639 26.02Z" fill="#3B82F6"/>
<rect x="1" y="1" width="142" height="41" stroke="#3B82F6" stroke-width="2"/>
<path fill-rule="evenodd" clip-rule="evenodd" d="M149.222 7.38889H142.833V41.8889H7.38889V47H149.222V7.38889Z" fill="#3B82F6"/>
</svg>
